<svg xmlns="http://www.w3.org/2000/svg" viewBox="0 0 1558.7 151.5"><defs><style>.cls-1{fill:#fff;}.cls-2{fill:#575756;}</style></defs><g id="Layer_2" data-name="Layer 2"><g id="Layer_1-2" data-name="Layer 1"><path class="cls-1" d="M12.8,0H283.1a12.76,12.76,0,0,1,12.8,12.8V138.7a12.76,12.76,0,0,1-12.8,12.8H12.8A12.76,12.76,0,0,1,0,138.7V12.8A12.76,12.76,0,0,1,12.8,0Z"/><path class="cls-1" d="M328.9,0H599.2A12.76,12.76,0,0,1,612,12.8V138.7a12.76,12.76,0,0,1-12.8,12.8H328.9a12.76,12.76,0,0,1-12.8-12.8V12.8A12.76,12.76,0,0,1,328.9,0Z"/><path class="cls-1" d="M645,0H915.3a12.76,12.76,0,0,1,12.8,12.8V138.7a12.76,12.76,0,0,1-12.8,12.8H645a12.76,12.76,0,0,1-12.8-12.8V12.8A12.76,12.76,0,0,1,645,0Z"/><path class="cls-1" d="M959.5,0h270.3a12.76,12.76,0,0,1,12.8,12.8V138.7a12.76,12.76,0,0,1-12.8,12.8H959.5a12.76,12.76,0,0,1-12.8-12.8V12.8A12.76,12.76,0,0,1,959.5,0Z"/><path class="cls-1" d="M1275.6,0h270.3a12.76,12.76,0,0,1,12.8,12.8V138.7a12.76,12.76,0,0,1-12.8,12.8H1275.6a12.76,12.76,0,0,1-12.8-12.8V12.8A12.76,12.76,0,0,1,1275.6,0Z"/><path class="cls-2" d="M71.9,45.5C71,40.6,67.7,39,63.7,39H34.5l-.2,1.6c20.1,5.6,36.5,17.6,43.9,40.3L71.9,45.5Zm8.2,46L78.2,80.8C74.4,69.7,65.1,59.4,54.6,54.7l14.7,61.1H88.4L116.9,39H97.7L80.1,91.5ZM131,115.9,142.3,39H124.2l-11.3,76.9Zm49.4-78.2c-17.9,0-30.4,10.4-30.5,25.4-.1,11,8.9,17.1,15.8,20.8,7.1,3.7,9.4,6.2,9.4,9.6,0,5.1-5.7,7.4-10.8,7.4-7.3,0-11.2-1-17-4l-2.4-1.3-2.5,17.3c4.2,2.2,12,4.1,20.2,4.1,19,.1,31.3-10.3,31.5-26.2,0-8.8-4.9-15.3-15.3-20.9-6.3-3.5-10.1-6-10.1-9.6,0-3.2,3.3-6.6,10.4-6.6a27.44,27.44,0,0,1,13.5,2.9l1.6.9,2.5-16.6a43.43,43.43,0,0,0-16.3-3.2ZM229,39c-4.4,0-7.6,1.4-9.5,6.5l-26.8,70.4h19c3.1-9.5,3.8-11.5,3.8-11.5h23.1s.5,2.6,2.2,11.5h16.8L243,39Zm-8.4,49.6s1.5-4.4,7.2-21.4c-.1.1,1.5-4.4,2.4-7.3l1.3,6.6c3.4,18.3,4.1,22.2,4.1,22.2l-15-.1Z"/><path class="cls-2" d="M729.6,68.9c.1,11.6,10.5,15.5,10.6,15.5a39.91,39.91,0,0,1-5.5,10.9c-3.3,4.7-6.7,9.3-12.1,9.4s-7-3-13.1-3-8,3-13,3.1c-5.2.2-9.2-5.1-12.5-9.7-6.8-9.5-12-26.9-5-38.7a19.38,19.38,0,0,1,16.4-9.6c5.1-.1,10,3.3,13.1,3.3s9-4.1,15.2-3.5a18.73,18.73,0,0,1,14.5,7.6c-.4.3-8.7,5-8.6,14.7Zm-10-28.5a16.35,16.35,0,0,0,4.1-12.3A17.92,17.92,0,0,0,712,34c-2.6,2.9-4.8,7.5-4.2,11.9a15.42,15.42,0,0,0,11.8-5.5Zm40.1-5.6a62.49,62.49,0,0,1,6.8-.9,73.83,73.83,0,0,1,8.2-.4,34.39,34.39,0,0,1,11,1.5,20.52,20.52,0,0,1,7.6,4.3,18.14,18.14,0,0,1,4,5.9,19.4,19.4,0,0,1,1.4,7.9,20.15,20.15,0,0,1-2,9.4,19.87,19.87,0,0,1-5.4,6.8,22.17,22.17,0,0,1-8.1,4.1A38.63,38.63,0,0,1,773,74.8a47.62,47.62,0,0,1-8.4-.7v29.8h-5l.1-69.1Zm5,34.8a17.63,17.63,0,0,0,4,.7c1.5.1,3.1.2,4.8.2,6.4,0,11.3-1.4,14.8-4.4s5.3-7.1,5.2-12.8a16.85,16.85,0,0,0-1.4-7,13.27,13.27,0,0,0-3.9-4.9,18.56,18.56,0,0,0-6-2.9,28.77,28.77,0,0,0-7.8-1,56.33,56.33,0,0,0-5.8.3,26.29,26.29,0,0,0-3.9.6V69.6ZM838.3,92c0,2,0,4,.1,6a57,57,0,0,0,.6,5.8h-4.7l-.7-7h-.2a16.83,16.83,0,0,1-2.4,2.9,17,17,0,0,1-3.4,2.6,17.9,17.9,0,0,1-4.5,1.9,20.24,20.24,0,0,1-5.5.7,18.24,18.24,0,0,1-6.5-1.2,14.36,14.36,0,0,1-4.6-3.1,13.42,13.42,0,0,1-2.7-4.4,14.26,14.26,0,0,1-.9-5,15,15,0,0,1,7.6-13.6c5.1-3.2,12.7-4.7,22.9-4.6V71.6a22.82,22.82,0,0,0-.4-4.5,12,12,0,0,0-1.7-4.8,9.91,9.91,0,0,0-3.8-3.8,13.75,13.75,0,0,0-6.9-1.6,22.32,22.32,0,0,0-12.3,3.8l-1.6-3.6a22.49,22.49,0,0,1,7-3.3,27.63,27.63,0,0,1,7.5-1,18.64,18.64,0,0,1,8.7,1.8,13.57,13.57,0,0,1,5.2,4.6,15.91,15.91,0,0,1,2.6,6.3,32.32,32.32,0,0,1,.7,6.9L838.3,92Zm-5-14.8a59,59,0,0,0-8.4.3,31.72,31.72,0,0,0-8.1,1.8,16.41,16.41,0,0,0-6.2,4.1,10.39,10.39,0,0,0-2.4,7.1c0,3.5,1,6.1,3.1,7.8a10.83,10.83,0,0,0,6.9,2.5,17,17,0,0,0,5.5-.8,13.68,13.68,0,0,0,7.2-5.4,15.47,15.47,0,0,0,1.9-3.6,10.47,10.47,0,0,0,.5-3V77.2ZM848,54.1l13,32.3c.7,1.8,1.4,3.6,2,5.5s1.2,3.6,1.7,5.2h.2c.5-1.5,1.1-3.2,1.7-5.1s1.3-3.9,2.1-5.9L880.8,54h5.3L871.4,90.5q-2.25,5.85-4.2,10.5a85,85,0,0,1-4,8.5,66.81,66.81,0,0,1-4.1,6.7,27.94,27.94,0,0,1-4.6,5.1,23.44,23.44,0,0,1-5.5,3.8q-2.55,1.2-3.3,1.5l-1.7-4a27.8,27.8,0,0,0,4.2-2.2,26.57,26.57,0,0,0,4.6-3.5A49.28,49.28,0,0,0,857,112a35.72,35.72,0,0,0,4.1-7.4,7.94,7.94,0,0,0,.6-2.2,7.94,7.94,0,0,0-.6-2.2L842.7,54.1Z"/><path class="cls-2" d="M1057.3,45c.2-3.2-1.2-6-3.1-6.4H985.5c-1.9.4-3.3,3.2-3.1,6.4h0c-.2,3.2,1.2,6,3.1,6.4h68.7c1.8-.4,3.2-3.2,3.1-6.4Zm-18.7,25.5c.2-3.2-1.2-6-3.1-6.4h-50c-1.9.4-3.3,3.2-3.1,6.4h0c-.2,3.2,1.2,6,3.1,6.4h50C1037.3,76.6,1038.7,73.7,1038.6,70.5Zm-18.8,25.6c.2-3.2-1.2-6-3.1-6.4H985.5c-1.9.4-3.3,3.2-3.1,6.4h0c-.2,3.2,1.2,6,3.1,6.4h31.2C1018.6,102.1,1020,99.3,1019.8,96.1Z"/><path class="cls-2" d="M502.3,25.2a62.62,62.62,0,0,0-39,13.3,62.62,62.62,0,0,0-39-13.3c-32.3,0-58.5,23.4-58.5,52.2s26.2,52.2,58.5,52.2a62.62,62.62,0,0,0,39-13.3,62.62,62.62,0,0,0,39,13.3c32.3,0,58.5-23.4,58.5-52.2S534.6,25.2,502.3,25.2ZM390,89.8l3.4-18.9-7.7,18.9h-4.4V70.9l-3.9,18.9h-5.8l4.8-25h8.7V80.3l6.3-15.5h9.2l-4.8,25Zm27-5.1a27.92,27.92,0,0,1-1,3.9v1.3h-4.8V87.8c-1.3,1.7-3.4,2.6-6.3,2.6a5.2,5.2,0,0,1-3.8-1.3,6.63,6.63,0,0,1-1.5-4.3c0-2.6.8-4.4,2.4-5.6a14.79,14.79,0,0,1,8.2-2.1h2.4V75.8c0-1.1-1.3-1.7-3.9-1.7a34.17,34.17,0,0,0-6.3.9c.3-1.1.6-2.6,1-4.3a22.17,22.17,0,0,1,6.8-1.3c5.5,0,8.2,2,8.2,6a17.37,17.37,0,0,1-.5,3.9,50.67,50.67,0,0,1-.9,5.4Zm17.4-10.4a15.68,15.68,0,0,0-4.3-.4c-1.9,0-2.9.6-2.9,1.7a1.54,1.54,0,0,0,.5,1.3l1.9.9c2.9,1.4,4.3,3.3,4.3,5.6,0,4.6-3.1,6.9-9.2,6.9a33.35,33.35,0,0,1-6.3-.4c.4-1.6.7-3.1,1-4.7a30.88,30.88,0,0,0,5.3.9c2.2,0,3.4-.6,3.4-1.7a1.66,1.66,0,0,0-.5-1.3,7,7,0,0,0-2.4-1.3c-2.9-1.1-4.3-3-4.3-5.6q0-6.9,8.7-6.9a28.31,28.31,0,0,1,5.8.4l-1,4.6Zm12.5.5h-3.4a13.06,13.06,0,0,1-.5,3.9,8.81,8.81,0,0,1-.2,1.7,3.63,3.63,0,0,1-.7,1.7v1.7c0,1.1.6,1.7,1.9,1.7a5.85,5.85,0,0,0,1.9-.4l-1,4.7a15.68,15.68,0,0,1-4.3.4c-3.2,0-4.8-1.4-4.8-4.3a17.85,17.85,0,0,1,1-5.6l2.4-13.8H445l-.5,3h2.9Zm18.8,6.8h-12a4.06,4.06,0,0,0,1,3,6.64,6.64,0,0,0,4.3,1.3,15.58,15.58,0,0,0,6.3-1.7l-1,5.2a21.81,21.81,0,0,1-6.3.9c-6.8,0-10.1-3-10.1-9,0-3.7,1-6.6,2.9-8.6a9.74,9.74,0,0,1,13.5-1.3,6.3,6.3,0,0,1,1.9,5.2,17,17,0,0,1-.5,5Zm9.7-3.8A81,81,0,0,0,473,89.9h-6.3l.5-1.3c1.3-8,2.2-14.3,2.9-18.9h5.8l-.5,3a5.66,5.66,0,0,1,2.9-2.6,2.29,2.29,0,0,1,2.9-.4q-.45.45-2.4,6c-1.3-.4-2.4.3-3.4,2.1Zm21.7,11.6a16,16,0,0,1-5.3.9,10.4,10.4,0,0,1-7.7-3c-1.9-1.7-2.9-4.3-2.9-7.8A15.89,15.89,0,0,1,485,68.7c2.3-2.9,5.5-4.3,9.7-4.3a26.39,26.39,0,0,1,6.8,1.3l-1,5.2a14.24,14.24,0,0,0-5.3-1.3,6.66,6.66,0,0,0-5.8,2.6c-1.3,1.4-1.9,3.7-1.9,6.9a5.84,5.84,0,0,0,1.4,4.3,4.75,4.75,0,0,0,3.9,1.7,14.24,14.24,0,0,0,5.3-1.3l-1,5.6Zm21.5-12.5a14.92,14.92,0,0,0-.2,2.1c-.3,1.5-.7,3.4-1,5.8a29.51,29.51,0,0,1-1,5h-4.8V87.7c-1.3,1.7-3.4,2.6-6.3,2.6a5.59,5.59,0,0,1-3.9-1.3,6.63,6.63,0,0,1-1.5-4.3c0-2.6.8-4.4,2.4-5.6A14,14,0,0,1,510,77h2.4a1.9,1.9,0,0,0,.5-1.3c0-1.1-1.3-1.7-3.8-1.7a34.17,34.17,0,0,0-6.3.9,12.84,12.84,0,0,1,1-4.3,22.17,22.17,0,0,1,6.8-1.3c5.5,0,8.2,2,8.2,6a10,10,0,0,1-.2,1.6Zm9.4.9c-.7,1.7-1.4,5.7-2.4,12.1h-6.3l.5-1.3c1.3-6.3,2.2-12.6,2.9-18.9h5.8a7.89,7.89,0,0,1-.5,3,5.66,5.66,0,0,1,2.9-2.6,3.69,3.69,0,0,1,2.9-.4,11,11,0,0,0-2.4,6c-1.3-.4-2.4.4-3.4,2.1Zm16.4,12,.5-1.7a6.35,6.35,0,0,1-5.3,2.1c-2.6,0-4.3-.7-5.3-2.1a9.65,9.65,0,0,1-2.4-6,12.52,12.52,0,0,1,3.4-9,7.68,7.68,0,0,1,6.8-3.4,8.64,8.64,0,0,1,5.8,2.6l1-7.3h6.3l-4.8,25Zm-138.9-6c0,1.4.6,2.1,1.9,2.1a3.33,3.33,0,0,0,2.9-1.3,5.05,5.05,0,0,0,1.5-3.9h-1.5c-3.2.1-4.8,1.1-4.8,3.1ZM460,74.3a1.78,1.78,0,0,1-1-.4h-1c-1.9,0-3.2,1.1-3.9,3.4h6.8V76l-.5-.9a2,2,0,0,0-.4-.8Zm45.8,9.5c0,1.4.6,2.1,1.9,2.1a3.33,3.33,0,0,0,2.9-1.3,5.05,5.05,0,0,0,1.5-3.9h-1.5C507.4,80.8,505.8,81.8,505.8,83.8ZM543,74.3a4.33,4.33,0,0,0-3.4,2.1c-.7.9-1,2.4-1,4.7,0,2.6,1,3.9,2.9,3.9a4.52,4.52,0,0,0,3.4-1.7,7.37,7.37,0,0,0,1.4-5.2c0-2.5-1.1-3.8-3.3-3.8Z"/><path class="cls-2" d="M1396.5,39.7V71.5h-90.2V39.7Z"/><path class="cls-2" d="M1519.6,55.5a39.74,39.74,0,0,1-1.5,4.9,10.56,10.56,0,0,1-3.7,4.4,13.12,13.12,0,0,1-5.1,1.9,17.5,17.5,0,0,1-8.5-.9,7.59,7.59,0,0,0-3,.1c-1.1.1-2.2.3-3.3.3h-32.7l.8-5.5c4.4.1,8.7-.2,13.1.2V52.3a7.52,7.52,0,0,0-2-5.5,4.47,4.47,0,0,0-3.1-1.2h-6.5l.8-5.5c.1,0,.2-.1.4-.1,2.6,0,5.2-.1,7.8.1a10,10,0,0,1,8.7,6.6,18.43,18.43,0,0,1,1.2,7v6.8h13a5.55,5.55,0,0,0,.3-1.7V47.7c0-3.7,1.6-5.9,5-6.9,1.4-.4,2.8-.7,4.3-1h3.2c1.2.3,2.4.6,3.6,1a10.18,10.18,0,0,1,5.2,4.6,16.51,16.51,0,0,1,1.9,5.8Zm-16.4,4.6a42.64,42.64,0,0,0,5,.2,4.06,4.06,0,0,0,3.9-3.2,13.29,13.29,0,0,0,.1-7.9,4.07,4.07,0,0,0-4-3.2h-1.7a7.87,7.87,0,0,0-3.7,1C1503.4,51.4,1503,55.6,1503.2,60.1Z"/><path class="cls-2" d="M1519.6,114.9c-1-.2-2.1-.3-3.1-.5a15,15,0,0,0-6.3-.4,18.7,18.7,0,0,1-5.3.4,7.15,7.15,0,0,1-7.2-7.1,6.15,6.15,0,0,1,.1-1.3c.3-4,3-6.1,6.9-6.6,2.5-.3,5-.2,7.5-.4h.5c.3-2.3,0-4.3-2.6-4.6a22.07,22.07,0,0,0-9.5,1.5,5.64,5.64,0,0,0-1.2.4l-.8-5.5a24.57,24.57,0,0,0,2.9-.9,23.89,23.89,0,0,1,8.8-1.4,13.36,13.36,0,0,1,4,.6,7.27,7.27,0,0,1,5.2,6.7.75.75,0,0,0,.1.5Zm-6.8-11.3a22.24,22.24,0,0,0-6.3.3,2.83,2.83,0,0,0-1.8,3,2.49,2.49,0,0,0,2.2,2.5,8.09,8.09,0,0,0,2.2,0c1.3-.2,2.5-.5,3.8-.8Z"/><path class="cls-2" d="M1306.2,114.8V83.1h90.2v31.8l-90.2-.1Z"/><path class="cls-2" d="M1427.9,40.4c-.2,1.8-.5,3.6-.7,5.4h-.7c-2.3,0-4.5,0-6.8.1s-3.5,1.6-4.3,3.7a19.43,19.43,0,0,0-.6,5.9,13.66,13.66,0,0,0,.5,4.9,5.24,5.24,0,0,0,2,2.6,5.71,5.71,0,0,0,3.2.9h27.3a4.48,4.48,0,0,0,2-.4,3.64,3.64,0,0,0,1.5-4.9,3.18,3.18,0,0,0-1.1-1.2,2.69,2.69,0,0,0-1.5-.5c-2.3-.1-4.6,0-6.8-.1a22,22,0,0,1-3.6-.4,7.05,7.05,0,0,1-5.3-6.7,9.39,9.39,0,0,1,1.4-6.1,7.46,7.46,0,0,1,4.7-3,29.78,29.78,0,0,1,5.1-.7c4.9-.1,9.9,0,14.8,0h.7c-.3,1.9-.5,3.7-.8,5.6h-15.6a3.1,3.1,0,0,0-2.9,1.3,3.63,3.63,0,0,0-.1,3.5,2.91,2.91,0,0,0,2.8,1.6h7.3a8.07,8.07,0,0,1,8.3,7.9v1.1a14.48,14.48,0,0,1-1,4.1,5.78,5.78,0,0,1-1.8,2.3,8.81,8.81,0,0,1-5.8,1.9c-7.4.1-14.8.1-22.2.1-3.1,0-6.2.1-9.2,0a13.2,13.2,0,0,1-3.9-.6,9.71,9.71,0,0,1-6.8-8,26.43,26.43,0,0,1,0-11.2,11,11,0,0,1,5.1-7.6,10.45,10.45,0,0,1,4.2-1.4c3.5-.2,6.9-.2,10.4-.2C1427.6,40.3,1427.8,40.4,1427.9,40.4Z"/><path class="cls-2" d="M1441.8,114.1h-7V98.4a10,10,0,0,0-.2-1.6,2.34,2.34,0,0,0-2.1-2,8.73,8.73,0,0,0-4.5.7c.4,6,.1,11.9.2,17.8v.7h-7V98.2a7.72,7.72,0,0,0-.2-1.5,2.27,2.27,0,0,0-2.4-1.9,25.79,25.79,0,0,0-3.9.4V114h-7.2c0-.2-.1-.4-.1-.6V94a3.82,3.82,0,0,1,3-4.1,21.32,21.32,0,0,1,12-.8,13.9,13.9,0,0,1,2.8,1.2,35.94,35.94,0,0,1,3.9-1.2,14.65,14.65,0,0,1,6.9-.1,7,7,0,0,1,5.8,6.6c.1,1.6.1,3.2.1,4.8v13.1Z"/><path class="cls-2" d="M1493.9,77.3V109c0,2.4-.8,3.6-3.1,4.2a40.21,40.21,0,0,1-5,1,10.75,10.75,0,0,1-3.1.1,24,24,0,0,1-5.3-1.2c-3.4-1.5-5.2-4.5-5.8-8a21.94,21.94,0,0,1,.4-9.2,9.32,9.32,0,0,1,9.1-7.2,27.38,27.38,0,0,1,5,.7,1.85,1.85,0,0,1,.7.2v-11Zm-7.2,17.8-3.2-.6a4.29,4.29,0,0,0-4.7,3,14,14,0,0,0-.4,6.1,7.33,7.33,0,0,0,1.4,3.7c1.7,2,4.4,1.7,6.8,1l.1-13.2Z"/><path class="cls-2" d="M1460.9,99a11.43,11.43,0,0,0-.7-3.2,3.22,3.22,0,0,0-1.8-1.2c-1.6-.6-3.2-.2-4.8.1-1.9.4-3.8,1-5.8,1.5l-.6.2c-.3-1.9-.5-3.6-.8-5.5.7-.2,1.3-.4,1.9-.6a25.32,25.32,0,0,1,9.8-1.7,14.08,14.08,0,0,1,3.5.5,7.17,7.17,0,0,1,5.7,7c.1,6.2.1,12.4.1,18.6v.4c-1-.2-2.1-.3-3.1-.6a13.41,13.41,0,0,0-6.3-.4,18.7,18.7,0,0,1-5.3.4,7.09,7.09,0,0,1-7.2-7.1,4.87,4.87,0,0,1,.1-1.2c.3-4.2,3.2-6.3,7.4-6.8,2.3-.2,4.7-.2,7.1-.3Zm-.2,4.3c-2.2.2-4.2.3-6.2.6a2.46,2.46,0,0,0-1.9,2.8,2.51,2.51,0,0,0,2.2,2.6,8.1,8.1,0,0,0,2.2,0c1.3-.2,2.6-.5,3.8-.8Z"/><path class="cls-2" d="M1096.9,59.8h-2.5a13.42,13.42,0,0,1-2.1-.1l.1.4c1.1,4.4-2.9,7-7.4,7s-9.7-2.5-10.7-6.9l-2.5-11.1h6l2.5,11c.4,1.6,2.5,2.3,3.6,2.3s2.8-.7,2.5-2.3l-5.9-25.4h6.1l4.6,19.9a2.43,2.43,0,0,0,2.3,1.2h2.5Z"/><path class="cls-2" d="M1104.5,59.8H1096l-.9-4.1h8.5Z"/><path class="cls-2" d="M1112,59.8h-8.5l-.9-4.1h8.5Z"/><path class="cls-2" d="M1110.5,55.8h3.4c1.3,0,1.6-.8,1.4-1.7l-2.7-11.8h6.1l2.6,11.4c1.1,4.5-1.2,6.2-6.3,6.2h-3.6Zm6.9,9.1a3.16,3.16,0,0,0-3.1-2.2c-1.4,0-2.3.9-2,2.2a3.15,3.15,0,0,0,3,2.2A1.81,1.81,0,0,0,1117.4,64.9Zm6.7,0a3.16,3.16,0,0,0-3.1-2.2c-1.4,0-2.3.9-2,2.2a3.15,3.15,0,0,0,3,2.2C1123.4,67.1,1124.4,66.2,1124.1,64.9Z"/><path class="cls-2" d="M1141.7,55.8h4.6l1,4.1h-4.6c1.2,5.4-2.5,7.3-7,7.3a18.37,18.37,0,0,1-6.6-1.4l.6-3.9a10.64,10.64,0,0,0,4.5,1c1.6,0,3.1-.9,2.7-2.6l-.1-.4H1134c-4.1,0-8-3-9.2-8.1-1.3-5.9,1-9.4,7.2-9.4a16,16,0,0,1,6.9,1.3Zm-8.2-9.9a3.73,3.73,0,0,0-1.2-.2c-2.1,0-2.6,1.3-1.7,5.1s2,4.9,4,4.9h1.2Z"/><path class="cls-2" d="M1154.9,59.8h-8.5l-.9-4.1h8.5Z"/><path class="cls-2" d="M1162.3,59.8h-8.5l-.9-4.1h8.5Z"/><path class="cls-2" d="M1169.8,59.8h-8.5l-.9-4.1h8.5Z"/><path class="cls-2" d="M1179.4,55.8l-1.8-7.9c-.4-1.4-1.4-1.9-3.1-1.9a9.19,9.19,0,0,0-4.4,1.1l-2-3.4a18.2,18.2,0,0,1,7-1.3c4.2,0,7.7,1.8,8.9,6.6l1.6,6.9h1.9l1,4.1h-19l-.9-4.1,10.8-.1Z"/><path class="cls-2" d="M1185.4,39.2a3,3,0,0,1-3-2.2,1.85,1.85,0,0,1,2-2.3,3.24,3.24,0,0,1,3.1,2.3C1187.8,38.2,1186.8,39.2,1185.4,39.2Zm2.5,20.6h3.6c5.1,0,7.3-1.7,6.3-6.2l-2.6-11.4h-6.1l2.7,11.8c.2.9-.1,1.7-1.4,1.7H1187Zm4.2-20.6a3,3,0,0,1-3-2.2,1.85,1.85,0,0,1,2-2.3,3.24,3.24,0,0,1,3.1,2.3C1194.5,38.2,1193.5,39.2,1192.1,39.2Z"/><path class="cls-2" d="M1044,90.8h7.3l3.1,13.3c.5,1.9,2.6,2.7,4,2.7H1069c2.8,0,3.6-.9,3-3.7h-.8c-5.4,0-9.4-2.7-11.3-6.8l6.8-2.2c.6,2.8,1.4,4,3.3,4h11.1l1.2,4.9h-3.2c1.4,6.3-2.3,8.7-7.8,8.7h-12.4c-5.5,0-10.8-3.1-12-8.4Zm18,29.8a3.82,3.82,0,0,1-3.7-2.6,2.22,2.22,0,0,1,2.4-2.7,3.81,3.81,0,0,1,3.7,2.7C1064.9,119.5,1063.7,120.6,1062,120.6Zm8.1,0a3.91,3.91,0,0,1-3.7-2.6,2.22,2.22,0,0,1,2.4-2.7,3.81,3.81,0,0,1,3.7,2.7C1073,119.5,1071.8,120.6,1070.1,120.6Z"/><path class="cls-2" d="M1079.9,98.3h13.9l-1.6-7.2c-.4-1.7-1.7-2.3-3.7-2.3a15.34,15.34,0,0,0-5.1,1.1h0L1082,91l-2.8-4.8,13.9-13.8,3.8,6.5-6.7,5.5c4.6.3,8.3,2.5,9.5,8l1.4,5.9h2.4l1.2,4.9H1081Z"/><path class="cls-2" d="M1113.9,103.2h-10.2l-1.1-4.9h10.2Z"/><path class="cls-2" d="M1122.9,103.2h-10.2l-1.1-4.9h10.2Z"/><path class="cls-2" d="M1131.9,103.2h-10.2l-1.1-4.9h10.2Z"/><path class="cls-2" d="M1140.8,103.2h-10.2l-1.1-4.9h10.2Z"/><path class="cls-2" d="M1149.8,103.2h-10.2l-1.1-4.9h10.2Z"/><path class="cls-2" d="M1158.8,103.2h-10.2l-1.1-4.9h10.2Z"/><path class="cls-2" d="M1167.8,103.2h-10.2l-1.1-4.9h10.2Z"/><path class="cls-2" d="M1183.1,103.2a12.71,12.71,0,0,1-7.1-1.8c-1,.9-2.9,1.8-6.6,1.8h-2.3l-1.1-4.9h4.2a2.06,2.06,0,0,0,1.7-.6L1168.3,82h7.3l3.2,14.1a2.78,2.78,0,0,0,3,2.2h2.5l1.2,4.9Zm-9.7-27.6a3.7,3.7,0,0,0-3.7-2.7,2.25,2.25,0,0,0-2.4,2.7,3.69,3.69,0,0,0,3.6,2.6C1172.6,78.2,1173.8,77.1,1173.4,75.6Z"/><path class="cls-2" d="M1184.1,98.3h4.1c1.6,0,2-1,1.7-2l-3.3-14.2h7.3l3.1,13.7c1.3,5.4-1.5,7.4-7.6,7.4h-4.3Zm12.8,11a4,4,0,0,0-3.8-2.7c-1.7,0-2.8,1.2-2.4,2.7a3.81,3.81,0,0,0,3.7,2.7C1196.1,111.9,1197.2,110.8,1196.9,109.3Z"/></g></g></svg>